<svg viewBox="0 0 32 32" xmlns="http://www.w3.org/2000/svg">
<path d="m10.399 17.1h-7.3884c0.00125 0.036 0.00225 0.0723 0.00425 0.1083 3e-3 0.0695 0.00799 0.1387 0.01224 0.2082 2e-3 0.0298 0.00325 0.0595 0.0055 0.089 0.00575 0.0805 0.01275 0.1605 0.02 0.2405 0.00175 0.0182 0.00325 0.0362 5e-3 0.0537 0.0085 0.089 0.01825 0.178 0.02875 0.2662 5e-4 0.0088 0.0015 0.0173 0.00275 0.0258 0.0115 0.0955 0.02374 0.1909 0.03774 0.2859 0 1e-3 2.5e-4 0.0025 7.5e-4 0.0035 0.08474 0.589 0.21198 1.1724 0.38171 1.7458 7.5e-4 0.0025 0.00175 0.0048 0.00225 0.0073 0.02649 0.0902 0.05449 0.18 0.08324 0.2692 0.00175 0.0052 0.0035 0.0105 5e-3 0.0157 0.0015 0.0053 0.00325 0.0105 5e-3 0.0158 0.02624 0.0807 0.05374 0.1612 0.08124 0.242 0.00725 0.0202 0.01399 0.0407 0.02149 0.061 0.02475 0.0697 0.05 0.1394 0.07599 0.2092 0.012 0.0315 0.024 0.0627 0.03575 0.0945 0.0225 0.0577 0.04474 0.115 0.06749 0.1727 0.01725 0.0432 0.03525 0.0865 0.05325 0.1297 0.01849 0.045 0.03749 0.0898 0.05649 0.135 0.0235 0.055 0.04799 0.1098 0.07224 0.1645 0.0145 0.0327 0.02925 0.0652 0.04374 0.0977 0.03 0.0658 0.061 0.1315 0.09199 0.1968 0.01025 0.021 0.02 0.042 0.0305 0.063 0.03625 0.0752 0.07324 0.1497 0.11074 0.2237 0.00625 0.0115 0.01175 0.0227 0.0175 0.0342 0.04224 0.082 0.08523 0.164 0.12948 0.2452 2e-3 0.0035 4e-3 7e-3 0.00575 0.011 0.00925 0.017 0.0195 0.0333 0.02875 0.05l6.31-3.8013 0.0232-0.014c-0.2489-0.5246-0.4039-1.0826-0.4614-1.6498z" fill="#93D500"/>
<path d="m3.36 20.488 0.00225 0.0065 0.23823-0.0749-0.24048 0.0684z" fill="#93D500"/>
<path d="m12.215 20.492-0.0177 0.0178-5.2041 5.2043c0.02674 0.025 0.05324 0.0503 0.08074 0.0745 0.04849 0.044 0.09798 0.0878 0.14723 0.1308 0.02549 0.0227 0.05049 0.0452 0.07599 0.0672 0.05899 0.051 0.11848 0.1007 0.17773 0.1505 0.01625 0.0135 0.03199 0.0267 0.04799 0.04 0.06674 0.0552 0.13474 0.1095 0.20298 0.1635 0.00875 0.0067 0.0175 0.0137 0.02624 0.0207 0.07375 0.058 0.14824 0.1145 0.22348 0.1715 0.00325 2e-3 6e-3 4e-3 0.0085 0.0062 0.31346 0.2343 0.63842 0.4537 0.97363 0.6582 0.0115 0.0073 0.023 0.014 0.03475 0.0212 0.06374 0.0383 0.12748 0.076 0.19172 0.1133 0.03925 0.0225 0.07849 0.0447 0.11774 0.067 0.03699 0.0215 0.07399 0.042 0.11149 0.0627 0.06749 0.037 0.13548 0.0738 0.20347 0.1098 0.00925 5e-3 0.01875 0.01 0.02825 0.015 0.18923 0.0989 0.38171 0.1909 0.57571 0.2794l0.1847-0.4484 2.6174-6.3565 0.0098-0.0235c-0.286-0.153-0.56-0.3342-0.8177-0.5452z" fill="#4D5A31"/>
<path d="m11.673 19.974c-0.0562-0.0625-0.1097-0.1265-0.1622-0.1912-0.0465-0.0575-0.0915-0.1155-0.135-0.1743-0.0497-0.0674-0.0985-0.1352-0.1445-0.2044-0.0465-0.0695-0.092-0.1395-0.135-0.2108l-6.318 3.8061c0.09699 0.1612 0.19823 0.3182 0.30147 0.4734 0.0035 0.0053 0.00675 0.011 0.01025 0.0163 0.00125 2e-3 0.0025 0.0037 0.00375 0.0057 0.0035 5e-3 0.00649 0.0105 0.00999 0.0158 2.5e-4 5e-4 7.5e-4 1e-3 1e-3 0.0015 0.00825 0.0125 0.01675 0.0245 0.02525 0.037 5e-4 7e-4 1e-3 0.0015 0.0015 0.0022 2.5e-4 3e-4 5e-4 8e-4 7.5e-4 1e-3 0.10974 0.1623 0.22247 0.322 0.33871 0.4775 0.0025 0.0032 0.00525 0.0067 0.00775 0.01 0.0025 0.0032 5e-3 0.0065 0.0075 0.0097 0.05049 0.067 0.10124 0.1338 0.15348 0.2 0.00675 0.0087 0.0135 0.0172 0.02075 0.0257 0.05349 0.0685 0.10799 0.136 0.16348 0.203 0.013 0.0158 0.0265 0.0318 0.03949 0.0478 0.05 0.0597 0.09999 0.1192 0.15099 0.1782 0.02174 0.0252 0.04449 0.0505 0.06649 0.0755 0.04349 0.0495 0.08649 0.0987 0.13098 0.1475 0.02425 0.0267 0.0495 0.0537 0.07424 0.0805 0.01125 0.0122 0.02225 0.0242 0.03375 0.0364 0.0325 0.035 0.06474 0.07 0.09749 0.1048 0.013 0.0137 0.02674 0.0272 0.03999 0.041 0.0575 0.06 0.11549 0.12 0.17473 0.179l5.2119-5.2119c-0.0598-0.0598-0.1157-0.1213-0.171-0.183z" fill="#6BA43A"/>
<path d="m18.582 20.489c-0.0573 0.0463-0.1153 0.0915-0.1743 0.135l0.013 0.0218 3.8001 6.308c0.176-0.115 0.3499-0.2335 0.5199-0.358 0.3677-0.2712 0.7237-0.5652 1.0666-0.8816l-5.2046-5.2047-0.0207-0.0205z" fill="#4D5A31"/>
<path d="m21.74 27.255c0.0028-0.0015 0.0059-0.0033 0.0088-0.0049l-3e-4 -3e-4c-0.0028 0.0016-0.0057 0.0034-0.0085 0.0052z" fill="#93D500"/>
<path d="m21.738 27.258v-9e-4h-1e-3l1e-3 9e-4z" fill="#93D500"/>
<path d="m21.748 27.25 3e-4 2e-4c0.0165-0.0092 0.0332-0.018 0.0497-0.0277l-1e-3 -0.0018c-0.0165 0.0098-0.0327 0.0195-0.049 0.0293z" fill="#93D500"/>
<path d="m21.738 27.256 0.0023-1e-3v-3e-4l-0.0023 0.0013z" fill="#93D500"/>
<path d="m21.737 27.257h3e-4l-0.0096-0.0163 0.0093 0.0163z" fill="#93D500"/>
<path d="m21.74 27.255c0.0031-0.0015 0.0059-0.0031 0.0088-0.0046-0.0029 0.0013-6e-3 0.0028-0.0088 0.0046z" fill="#93D500"/>
<path d="m21.733 27.259 0.0024-0.0013-0.0024 0.0013z" fill="#93D500"/>
<path d="m21.737 27.257-0.0011 7e-4 0.0013-5e-4 -2e-4 -2e-4z" fill="#93D500"/>
<path d="m21.738 27.256c-5e-4 2e-4 -1e-3 5e-4 -0.0016 8e-4 0.0013-8e-4 0.0026-0.0013 0.0039-0.0021v-3e-4c-8e-4 8e-4 -0.0015 0.0013-0.0023 0.0016z" fill="#93D500"/>
<path d="m21.749 27.25c0.0165-0.0098 0.0333-0.018 0.0495-0.028-0.0162 0.01-0.033 0.0187-0.0495 0.028z" fill="#93D500"/>
<path d="m21.798 27.222-1e-3 -0.0016h-3e-4l0.0013 0.0016z" fill="#93D500"/>
<path d="m21.731 27.26 3e-4 -2e-4h2e-4l-5e-4 2e-4z" fill="#93D500"/>
<path d="m21.733 27.259-0.0015 1e-3 0.0015-1e-3z" fill="#93D500"/>
<path d="m21.668 27.006-0.129-0.214-3.547-5.888c-0.0718 0.0432-0.1453 0.0822-0.2185 0.1217-0.074 0.0398-0.1485 0.077-0.224 0.1128-0.6814 0.3232-1.4191 0.4882-2.1577 0.4882-0.484 0-0.9677-0.07-1.4354-0.2095-0.0797-0.0238-0.1574-0.055-0.2362-0.083-0.0787-0.0277-0.1585-0.0517-0.2359-0.0837l-2.6157 6.3522-0.1025 0.249-0.0878 0.2132-5e-4 1e-3c0.0068 0.0027 0.0138 5e-3 0.0205 0.0077 0.0073 3e-3 0.0143 0.0053 0.0215 0.0083h3e-4c2e-4 0 5e-4 2e-4 5e-4 2e-4 0.0017 8e-4 0.0035 0.0013 5e-3 2e-3 0.0617 0.0253 0.124 0.047 0.186 0.0713 0.0777 0.0302 0.1554 0.061 0.2334 0.0895 0.0398 0.0145 0.0793 0.0315 0.119 0.0455h3e-4c0.8194 0.2894 1.6673 0.4919 2.5294 0.6054 0.0338 4e-3 0.0673 0.0087 0.101 0.0135 0.0352 4e-3 0.0707 0.0075 0.106 0.0115 0.0665 0.0075 0.1327 0.0152 0.1995 0.0217 0.0165 0.0013 0.033 0.0028 0.0495 0.0043 0.0817 0.0077 0.1634 0.0147 0.2447 0.0205 0.0277 2e-3 0.0557 0.0032 0.0832 0.0052 0.0718 0.0048 0.143 0.0093 0.2145 0.0125 0.0437 0.0025 0.0875 0.0038 0.1315 0.0053 0.0567 2e-3 0.1132 0.0042 0.1705 6e-3 0.0817 2e-3 0.1642 0.0027 0.2464 3e-3 0.0195 0 0.0388 5e-4 0.058 7e-4 0.6887 0 1.3771-0.0572 2.058-0.1714 0.0115-0.0018 0.0228-0.0038 0.0345-0.0053 0.072-0.0125 0.144-0.026 0.216-0.0392 0.041-8e-3 0.0822-0.0158 0.1227-0.0238 0.042-0.0087 0.0843-0.0175 0.1263-0.0265 0.0702-0.0147 0.1402-0.03 0.2104-0.0462 0.0125-0.0028 0.0253-0.0053 0.038-0.0088 1.0352-0.2412 2.0348-0.6147 2.9739-1.1088l3e-4 -3e-4c0.0615-0.0325 0.1215-0.0695 0.1827-0.1027 0.073-0.04 0.1455-0.0813 0.218-0.1228 0.0502-0.0287 0.101-0.0552 0.1507-0.085l3e-4 -2e-4c5e-4 -3e-4 1e-3 -8e-4 0.0015-1e-3h2e-4c8e-4 -5e-4 0.0015-8e-4 0.0023-0.0013 5e-4 -2e-4 7e-4 -5e-4 1e-3 -7e-4l-0.0093-0.0158 0.0093 0.0158c5e-4 -3e-4 1e-3 -5e-4 0.0015-8e-4 7e-4 -5e-4 0.0015-7e-4 0.0022-0.0012 0.0028-0.0018 0.0055-0.0033 0.0083-5e-3 0.0162-0.0098 0.0325-0.0195 0.0487-0.0293l-0.128-0.2137z" fill="#93D500"/>
<path d="m12.218 12.712c0.0575-0.0465 0.1155-0.0915 0.1743-0.135l-0.013-0.0218-3.7998-6.308c-0.17648 0.11524-0.35096 0.23398-0.52119 0.35896-0.36745 0.27047-0.72316 0.56418-1.0654 0.8804l5.2046 5.2046 0.0205 0.0208z" fill="#93D500"/>
<path d="m6.6321 7.8327c-0.05925 0.05925-0.11524 0.12049-0.17298 0.18048-0.05775 0.05999-0.11649 0.11973-0.17298 0.18073-0.38446 0.4162-0.73591 0.85215-1.0529 1.3048-0.01524 0.02125-0.03049 0.0435-0.04549 0.06524-0.03575 0.052-0.07099 0.10399-0.10574 0.15624-0.03624 0.05424-0.07224 0.10923-0.10724 0.16398-0.01324 0.02-0.02624 0.04024-0.03899 0.06024-1.1971 1.878-1.8385 4.008-1.9248 6.156-0.00325 0.0832-5e-3 0.1667-0.00675 0.2499-0.00175 0.0833-0.00425 0.1668-0.00425 0.25h7.3711c0-0.0835 0.0078-0.1665 0.012-0.25 0.0043-0.0835 0.0055-0.1669 0.0138-0.2499 0.0952-0.9599 0.4657-1.8971 1.1116-2.6845 0.0525-0.064 0.1117-0.1239 0.168-0.1857 0.056-0.0617 0.108-0.126 0.1677-0.1855l-5.2121-5.2121z" fill="#4D5A31"/>
<path d="m21.841 6.0032c-0.01-0.00625-0.0205-0.01225-0.0305-0.01825-0.0647-0.03974-0.1302-0.07799-0.1957-0.11624-0.038-0.02199-0.076-0.04324-0.1143-0.06499-0.0384-0.0215-0.0764-0.04299-0.1152-0.06399-0.0665-0.03649-0.1332-0.07249-0.2002-0.10799-0.0105-0.00525-0.0208-0.011-0.0315-0.01649-0.4322-0.22598-0.8762-0.42496-1.3294-0.59768-0.0114-0.00475-0.0234-0.00925-0.0352-0.0135-0.0987-0.037-0.1977-0.07374-0.2975-0.10824-0.8051-0.28122-1.6378-0.47844-2.4837-0.58943-0.0345-0.00475-0.0692-0.0095-0.1037-0.014-0.0347-0.00425-0.0692-0.00774-0.1037-0.01149-0.0668-0.00775-0.1333-0.01525-0.2003-0.02175-0.0185-0.00175-0.0372-3e-3 -0.056-5e-3 -0.0792-0.00725-0.1589-0.01425-0.2382-0.02-0.0307-0.00225-0.062-4e-3 -0.0927-0.00575-0.068-0.0045-0.1368-0.00925-0.2047-0.01225-0.0365-2e-3 -0.0725-3e-3 -0.1085-0.00425l-3e-4 7.3601v0.0287c0.3792 0.0393 0.7549 0.12 1.1194 0.2438l5.4378-5.4379c-0.2017-0.13998-0.4059-0.27597-0.6159-0.40345z" fill="#4D5A31"/>
<path d="m9.1315 6.1946-0.12899-0.21397 0.12899 0.21397z" fill="#6BA43A"/>
<path d="m9.0018 5.9792 7.8e-4 0.00155-7.8e-4 -0.00155z" fill="#6BA43A"/>
<path d="m15.15 4.2059c-0.0832 0.00175-0.1667 2e-3 -0.2499 0.00525-0.5215 0.02099-1.0419 0.07424-1.5581 0.16073-0.0113 2e-3 -0.0225 0.00375-0.034 0.00575-0.0725 0.0125-0.1442 0.02574-0.2162 0.03924-0.0408 0.00775-0.0818 0.01525-0.1225 0.0235-0.0425 0.0085-0.0848 0.01725-0.127 0.0265-0.07 0.0145-0.14 0.02974-0.21 0.04599-0.0127 0.00275-0.0252 0.00575-0.0382 0.0085-1.0351 0.24147-2.0353 0.61518-2.9742 1.1094h-2.5e-4c-0.06124 0.03249-0.12099 0.06924-0.18198 0.10273-0.07299 0.04-0.14548 0.08125-0.21797 0.12274-0.05374 0.031-0.10849 0.05949-0.16198 0.09149-5e-4 2.5e-4 -0.00125 7.5e-4 -0.00175 1e-3h-2.5e-4c-0.00375 0.00225-0.0075 0.00425-0.01125 0.0065-0.014 0.0085-0.0285 0.0155-0.0425 0.02399l7.5e-4 0.00126 0.12899 0.21422 3.6758 6.1023c0.0717-0.0433 0.1452-0.0825 0.2184-0.1218 0.0738-0.0397 0.1485-0.077 0.2238-0.1127 0.5249-0.25 1.0828-0.405 1.65-0.4625 0.0832-0.0085 0.1665-0.0155 0.25-0.0197 0.0832-0.0043 0.1665-0.0085 0.2499-0.0085l3e-4 -7.3709c-0.0835 0-0.1667 0.0035-0.25 5e-3z" fill="#6BA43A"/>
<path d="m27.784 15.991c-0.0035-0.0662-0.0075-0.1322-0.012-0.1987-2e-3 -0.033-0.0037-0.0658-0.0065-0.0992-0.0055-0.0778-0.012-0.1558-0.0192-0.2335-0.0015-0.0203-0.0035-0.0403-0.0053-0.0605-0.0085-0.087-0.0177-0.174-0.0277-0.2607-1e-3 -7e-3 -0.0018-0.014-0.0025-0.021-5e-4 -0.0033-8e-4 -0.0068-0.0013-0.01-0.0115-0.0938-0.024-0.1875-0.0372-0.281-3e-4 -0.0027-5e-4 -0.0062-0.0013-0.0087-0.0847-0.5877-0.2117-1.1702-0.3809-1.7428-0.0013-4e-3 -0.0023-0.0075-0.0035-0.011-0.0268-0.089-0.054-0.1775-0.082-0.2658-0.0038-0.0114-0.0078-0.0232-0.0113-0.0349-0.0262-0.0798-0.0527-0.159-0.0802-0.2385-0.0077-0.0213-0.0152-0.0428-0.0227-0.0645-0.0243-0.0688-0.0493-0.1372-0.0748-0.2057-0.0122-0.0328-0.0247-0.0653-0.0375-0.0978-0.0215-0.0567-0.0437-0.1135-0.0662-0.1695-0.018-0.0449-0.036-0.0892-0.0545-0.1334-0.018-0.044-0.0365-0.0875-0.055-0.1315-0.0243-0.056-0.0488-0.112-0.0735-0.1678-0.014-0.0312-0.028-0.0629-0.0425-0.0944-0.0305-0.0665-0.0617-0.133-0.0932-0.1993-0.0098-0.02-0.0193-0.0405-0.029-0.0605-0.0368-0.0757-0.074-0.1514-0.112-0.2264-0.0055-0.0103-0.0108-0.0208-0.0163-0.0313-0.0425-0.0827-0.086-0.1657-0.1302-0.2474-0.0018-0.0028-3e-3 -6e-3 -0.0048-0.0088-0.2147-0.395-0.4504-0.77691-0.7054-1.1444l-5.4396 5.4399c0.1238 0.3647 0.2043 0.7401 0.2435 1.1191h7.3891c-0.0017-0.0372-0.0027-0.0737-0.0045-0.11z" fill="#4D5A31"/>
<path d="m20.428 16.6c0 0.0834-0.0077 0.1664-0.012 0.2499-4e-3 0.0835-0.0055 0.167-0.0137 0.25-0.0953 0.9599-0.4657 1.8973-1.1114 2.6847-0.0525 0.064-0.1117 0.124-0.168 0.1857-0.056 0.0617-0.108 0.126-0.1677 0.1855l5.2121 5.2119c0.0593-0.0593 0.115-0.1205 0.1728-0.1808 0.0577-0.0602 0.1164-0.1197 0.1727-0.1807 0.3857-0.4177 0.7381-0.8546 1.0559-1.3088 0.0127-0.018 0.0247-0.0358 0.037-0.0535 0.0387-0.0558 0.0764-0.112 0.1144-0.1683 0.0333-0.0502 0.0665-0.1005 0.0988-0.1512 0.016-0.0242 0.032-0.0495 0.0475-0.0737 1.1953-1.8771 1.835-4.0048 1.921-6.1511 0.0032-0.0832 5e-3 -0.1667 0.0067-0.2499 0.0018-0.0833 0.0043-0.1665 0.0043-0.25h-7.3704v3e-4z" fill="#6BA43A"/>
<path d="m29.989 2.0114c-1.3486-1.3486-3.5351-1.3486-4.8834 0-1.0759 1.0756-1.2909 2.6837-0.6502 3.975l-7.5219 7.5221c-1.2913-0.6405-2.8994-0.4257-3.9752 0.6499-1.3486 1.3486-1.3484 3.5351 0 4.8837 1.3488 1.3485 3.5353 1.348 4.8839-3e-4 1.0756-1.0756 1.2903-2.6837 0.6497-3.9753l7.5218-7.5218c1.2916 0.64042 2.8994 0.4257 3.975-0.65017 1.3486-1.3478 1.3486-3.5346 3e-4 -4.8832z" fill="#424143"/>
</svg>