<svg viewBox="0 0 32 32" xmlns="http://www.w3.org/2000/svg">
<path d="m26.553 7.8504c-1.6119-2.0873-3.8067-3.6496-6.3066-4.4895s-5.1928-0.91949-7.738-0.22882c-2.5452 0.69067-4.8284 2.1206-6.5609 4.109-1.7325 1.9884-2.8364 4.4459-3.1721 7.0617s0.11183 5.2724 1.286 7.6338c1.1742 2.3614 3.0223 4.3216 5.3106 5.6326s4.914 1.914 7.545 1.7326c2.631-0.1813 5.1491-1.1388 7.2359-2.7514 2.7976-2.1618 4.622-5.3463 5.0721-8.853 0.4501-3.5068-0.5111-7.0487-2.6721-9.847z" fill="#FF6C37"/>
<path d="m20.497 11.162-5.6222 5.6666-1.5889-1.6333c5.5333-5.5333 6.0889-5.0333 7.2111-4.0333z" fill="#fff"/>
<path d="m14.875 16.984c-0.0499-0.0013-0.0974-0.0211-0.1334-0.0556l-1.6-1.6c-0.036-0.0372-0.0561-0.087-0.0561-0.1389 0-0.0518 0.0201-0.1016 0.0561-0.1388 5.4556-5.4556 6.2-5.2 7.4889-4.0334 0.0216 0.0173 0.0388 0.0393 0.0504 0.0644s0.0171 0.0525 0.0163 0.0801c0.0041 0.0268 0.0012 0.0543-0.0086 0.0796-0.0097 0.0253-0.0259 0.0477-0.047 0.0648l-5.6222 5.6222c-0.0394 0.0362-0.091 0.056-0.1444 0.0556zm-1.3111-1.7889 1.3111 1.3111 5.3333-5.3333c-0.1842-0.2307-0.4469-0.3855-0.738-0.4347s-0.59 0.0106-0.8398 0.168c-0.9667 0.4334-2.5222 1.7556-5.0666 4.2889z" fill="#FF6C37"/>
<path d="m16.486 18.395-1.5333-1.5667 5.6222-5.5555c1.5111 1.4777-0.7333 3.9444-4.0889 7.1222z" fill="#fff"/>
<path d="m16.486 18.595c-0.0492-4e-3 -0.0959-0.0234-0.1333-0.0556l-1.5667-1.5333c-0.0235-0.057-0.0235-0.1209 0-0.1778-0.017-0.0466-0.017-0.0978 0-0.1444l5.6222-5.6222c0.0391-0.0368 0.0908-0.0572 0.1444-0.0572 0.0537 0 0.1054 0.0204 0.1445 0.0572 0.1822 0.1675 0.3261 0.3723 0.4219 0.6005 0.0959 0.2282 0.1415 0.4743 0.1336 0.7217 0 1.5-1.7111 3.3889-4.6222 6.1444-0.0388 0.0385-0.0899 0.0621-0.1444 0.0667zm-1.2445-1.7667 1.2556 1.2556c2.2222-2.1 4.3444-4.2667 4.3555-5.7334 0.0121-0.311-0.0907-0.6155-0.2888-0.8555l-5.3223 5.3333z" fill="#FF6C37"/>
<path d="m13.33 15.228 1.1111 1.1111c0.0071 0.0063 0.0128 0.014 0.0167 0.0226s0.0059 0.018 0.0059 0.0274c0 0.0095-2e-3 0.0188-0.0059 0.0274-0.0039 0.0087-0.0096 0.0164-0.0167 0.0226l-2.3444 0.5c-0.0473 0.0101-0.0966 0.0044-0.1403-0.016-0.0438-0.0205-0.0797-0.0547-0.1023-0.0974s-0.0307-0.0916-0.023-0.1393 0.0307-0.0916 0.0656-0.1251l1.3666-1.3555s0.0445 0 0.0667 0.0222z" fill="#fff"/>
<path d="m12.042 17.161c-0.074-9e-4 -0.1466-0.0208-0.2108-0.0578-0.0642-0.0369-0.1179-0.0897-0.1558-0.1533-0.0428-0.0806-0.0584-0.1728-0.0443-0.2629 0.014-0.0902 0.0568-0.1733 0.122-0.2371l1.3556-1.3667c0.0489-0.0437 0.1122-0.0679 0.1778-0.0679s0.1289 0.0242 0.1778 0.0679l1.1111 1.1111c0.0323 0.0308 0.0557 0.0699 0.0674 0.113 0.0118 0.0431 0.0115 0.0885-8e-4 0.1315-0.0127 0.0438-0.037 0.0834-0.0702 0.1146-0.0332 0.0313-0.0742 0.0531-0.1187 0.0632l-2.3444 0.5-0.0667 0.0444zm1.2445-1.6889-1.2556 1.2556 2.0778-0.4445-0.8222-0.8111z" fill="#FF6C37"/>
<path d="m23.486 8.0393c-0.2894-0.2793-0.6511-0.47206-1.0443-0.5565-0.3933-0.08443-0.8023-0.05716-1.1808 0.07872-0.3786 0.13588-0.7115 0.37495-0.9613 0.69019s-0.4063 0.69407-0.452 1.0937c-0.0458 0.39958 0.0212 0.80396 0.1934 1.1675 0.1721 0.3635 0.4425 0.6716 0.7806 0.8895 0.3381 0.2178 0.7303 0.3367 1.1325 0.3433 0.4021 0.0065 0.7981-0.0996 1.1431-0.3063l-1.5112-1.5112 1.9-1.8889z" fill="#fff"/>
<path d="m21.986 11.95c-0.4621-0.0061-0.9121-0.1479-1.2941-0.4078s-0.6792-0.6265-0.8544-1.054c-0.1753-0.4275-0.221-0.89716-0.1314-1.3504 0.0897-0.45329 0.3106-0.8702 0.6354-1.1988 0.4447-0.43701 1.0432-0.68189 1.6667-0.68189 0.6234 0 1.222 0.24488 1.6666 0.68189 0.0211 0.01773 0.038 0.03984 0.0496 0.06479s0.0176 0.05214 0.0176 0.07965c0 0.02752-6e-3 0.0547-0.0176 0.07965s-0.0285 0.04707-0.0496 0.0648l-1.8 1.7 1.3667 1.3444c0.0221 0.0212 0.0387 0.0475 0.0483 0.0765 0.0097 0.029 0.0122 0.06 0.0073 0.0902-0.0034 0.0291-0.013 0.0572-0.0284 0.0821-0.0154 0.025-0.036 0.0463-0.0605 0.0623-0.3671 0.2298-0.7893 0.3565-1.2222 0.3667zm0-4.3111c-0.3854 0.00196-0.7615 0.11772-1.0813 0.33273-0.3197 0.21501-0.5688 0.51969-0.716 0.8758-0.1472 0.3561-0.1859 0.74775-0.1113 1.1258 0.0746 0.37799 0.2593 0.72559 0.5308 0.99899 0.2761 0.2776 0.6296 0.4654 1.0142 0.5387 0.3846 0.0734 0.7824 0.0289 1.1413-0.1276l-1.3111-1.3111c-0.0215-0.0172-0.0388-0.0392-0.0504-0.0643-0.0115-0.02509-0.0171-0.05251-0.0162-0.08011 8e-4 -0.02572 0.0071-0.05097 0.0186-0.07399 0.0116-0.02302 0.0279-0.04327 0.048-0.05934l1.7334-1.7444c-0.3445-0.26434-0.7659-0.40872-1.2-0.41111z" fill="#FF6C37"/>
<path d="m23.519 8.0726-1.9 1.8889 1.5111 1.5111c0.1521-0.0873 0.2938-0.1917 0.4222-0.3111 0.3961-0.4187 0.614-0.9749 0.6078-1.5512-0.0062-0.57631-0.2361-1.1277-0.6411-1.5377z" fill="#fff"/>
<path d="m23.097 11.639c-0.025 0.0013-0.05-3e-3 -0.073-0.0126-0.0231-0.0096-0.0438-0.0243-0.0604-0.0429l-1.5111-1.5111c-0.0216-0.0173-0.0388-0.0393-0.0504-0.0644-0.0116-0.02507-0.0171-0.05249-0.0163-0.08009 8e-4 -0.02573 0.0072-0.05097 0.0187-0.07399s0.0279-0.04327 0.048-0.05935l1.8889-1.8556c0.0182-0.0275 0.043-0.05006 0.0721-0.06567s0.0616-0.02377 0.0946-0.02377 0.0655 0.00816 0.0945 0.02377c0.0291 0.01561 0.0539 0.03817 0.0721 0.06567 0.2218 0.21726 0.3979 0.47657 0.5182 0.76275 0.1202 0.28619 0.1822 0.59349 0.1822 0.90392 0 0.31042-0.062 0.61771-0.1822 0.90391-0.1203 0.2862-0.2964 0.5455-0.5182 0.7627-0.1306 0.1389-0.2802 0.2586-0.4444 0.3556-0.0413 0.0209-0.0892 0.0249-0.1333 0.0111zm-1.2223-1.7111 1.2556 1.2556c0.0863-0.0606 0.168-0.1274 0.2444-0.2 0.3691-0.3681 0.5769-0.8677 0.5778-1.3889 6e-4 -0.46637-0.1693-0.91688-0.4778-1.2667l-1.6 1.6z" fill="#FF6C37"/>
<path d="m20.73 11.395c-0.1505-0.1414-0.3491-0.2201-0.5556-0.2201-0.2064 0-0.4051 0.0787-0.5555 0.2201l-5.0334 5.0222 0.8334 0.8444 5.3222-4.6666c0.0813-0.0777 0.1459-0.1712 0.1897-0.2748s0.0658-0.2151 0.0648-0.3276c-0.0011-0.1125-0.0252-0.2236-0.0709-0.3264-0.0457-0.1027-0.1119-0.1951-0.1947-0.2712z" fill="#fff"/>
<path d="m15.375 17.461c-0.0498-0.0012-0.0973-0.0211-0.1333-0.0555l-0.8445-0.8445c-0.0359-0.0373-0.056-0.0871-0.056-0.1389s0.0201-0.1016 0.056-0.1389l5.0334-5.0111c0.1916-0.1913 0.4514-0.2988 0.7222-0.2988s0.5306 0.1075 0.7222 0.2988c0.099 0.0988 0.1767 0.2168 0.2283 0.3467 0.0516 0.13 0.076 0.2691 0.0717 0.4089-0.0057 0.139-0.0391 0.2755-0.0982 0.4014-0.0592 0.126-0.1429 0.2388-0.2462 0.3319l-5.3222 4.6667c-0.0387 0.0274-0.0863 0.0393-0.1334 0.0333zm-0.5889-1.0444 0.5556 0.5666 5.2222-4.5444c0.0641-0.0554 0.1159-0.1235 0.1523-0.2 0.0363-0.0765 0.0563-0.1598 0.0588-0.2444 0.0033-0.0851-0.0118-0.1699-0.0444-0.2485-0.0327-0.0787-0.0819-0.1493-0.1445-0.2071-0.1166-0.116-0.2744-0.1811-0.4389-0.1811s-0.3223 0.0651-0.4389 0.1811l-4.9222 4.8778z" fill="#FF6C37"/>
<path d="m10.686 22.139c-0.0144 0.0192-0.0222 0.0426-0.0222 0.0666 0 0.0241 0.0078 0.0475 0.0222 0.0667l0.2222 0.9667c0.0093 0.0563 0.0011 0.1141-0.0236 0.1656-0.0248 0.0514-0.0647 0.094-0.1145 0.1219s-0.107 0.0398-0.1638 0.0341c-0.0567-0.0057-0.1104-0.0288-0.1536-0.0661l-1.5222-1.4666 4.7444-4.7778h1.6444l1.1112 1.1111c-1.7334 1.5157-3.6661 2.7867-5.7445 3.7778z" fill="#fff"/>
<path d="m10.586 23.772c-0.1258-0.0024-0.2456-0.0543-0.3334-0.1445l-1.4555-1.4555c-0.02156-0.0172-0.03882-0.0393-0.05039-0.0644-0.01157-0.025-0.01714-0.0524-0.01627-0.08 7.9e-4 -0.0258 0.00717-0.051 0.01868-0.074 0.01151-0.0231 0.02788-0.0433 0.04798-0.0594l4.7778-4.7889c0.0268-0.0284 0.0617-0.0478 0.1-0.0555h1.6555c0.0431-0.0153 0.0902-0.0153 0.1333 0l1.1112 1.1111c0.0211 0.0195 0.0372 0.0438 0.0469 0.0709s0.0126 0.0562 0.0086 0.0847c9e-4 0.0276-0.0047 0.055-0.0163 0.08-0.0115 0.0251-0.0288 0.0472-0.0504 0.0644l-0.0888 0.0778c-1.7405 1.451-3.6553 2.679-5.7 3.6555l0.2111 0.9c0.0166 0.0695 0.0174 0.1418 0.0024 0.2116-0.015 0.0699-0.0455 0.1355-0.0892 0.192s-0.0995 0.1024-0.1633 0.1345c-0.0639 0.0321-0.1341 0.0494-0.2055 0.0508l0.0556 0.0889zm-1.3556-1.7444 1.3111 1.3222c0.0123 0.0109 0.0281 0.017 0.0445 0.017s0.0322-0.0061 0.0444-0.017c0.0082-0.0114 0.0125-0.025 0.0125-0.0389 0-0.014-0.0043-0.0276-0.0125-0.0389l-0.2222-0.9667c-0.0173-0.0694-0.0102-0.1426 0.0202-0.2074 0.0303-0.0647 0.0821-0.117 0.1465-0.1481 1.9897-0.9635 3.8552-2.1648 5.5555-3.5778l-0.9111-0.9111h-1.4889l-4.5 4.5667z" fill="#FF6C37"/>
<path d="m7.7861 23.172 1.1111-1.1111 1.7111 1.7111-2.7222-0.1888c-0.04692-0.0035-0.09154-0.0217-0.12745-0.0521-0.03591-0.0303-0.06124-0.0714-0.07236-0.1171s-0.00745-0.0937 0.01049-0.1372 0.04921-0.0802 0.08932-0.1048z" fill="#fff"/>
<path d="m10.642 23.939-2.7111-0.1889c-0.07887-0.0074-0.15406-0.0368-0.21698-0.0849-0.06292-0.0482-0.11104-0.113-0.13885-0.1872-0.02782-0.0742-0.03421-0.1547-0.01844-0.2323s0.05306-0.1492 0.1076-0.2067l1.1111-1.1111c0.03728-0.036 0.08708-0.0561 0.13889-0.0561s0.10161 0.0201 0.13889 0.0561l1.7 1.7c0.0235 0.0323 0.0361 0.0712 0.0361 0.1111s-0.0126 0.0788-0.0361 0.1111c-0.0256 0.0416-0.0649 0.073-0.1111 0.0889zm-2.7111-0.6222 2.2222 0.1444-1.2222-1.1444-1 1z" fill="#FF6C37"/>
<path d="m15.475 17.384-2.2445 0.3444 1.3-1.2889 0.9445 0.9445z" fill="#fff"/>
<path d="m13.231 17.939c-0.0373 0.0011-0.0741-0.0089-0.1057-0.0286-0.0317-0.0198-0.0568-0.0485-0.0721-0.0825-0.0235-0.0323-0.0361-0.0712-0.0361-0.1111s0.0126-0.0788 0.0361-0.1111l1.2889-1.3c0.0391-0.0367 0.0908-0.0572 0.1444-0.0572 0.0537 0 0.1053 0.0205 0.1445 0.0572l0.9444 0.9444c0.0187 0.03 0.0287 0.0647 0.0287 0.1 0 0.0354-0.01 0.07-0.0287 0.1-0.0085 0.0369-0.0278 0.0704-0.0556 0.0962-0.0277 0.0257-0.0625 0.0425-0.0999 0.0483l-2.2223 0.3444h0.0334zm1.3-1.2111-0.7222 0.7222 1.2444-0.1889-0.5222-0.5333z" fill="#FF6C37"/>
<path d="m15.475 17.384-1.5667 0.2c-0.0419 0.0095-0.0858 0.0053-0.1252-0.0121-0.0393-0.0173-0.072-0.0469-0.0932-0.0843-0.0212-0.0375-0.0298-0.0807-0.0245-0.1234s0.0243-0.0825 0.054-0.1136l0.8111-0.8111 0.9445 0.9445z" fill="#fff"/>
<path d="m13.864 17.795c-0.0727-7e-4 -0.1438-0.0205-0.2063-0.0576-0.0624-0.0371-0.114-0.0901-0.1493-0.1535-0.0424-0.0761-0.0588-0.1639-0.0468-0.2501s0.0519-0.1662 0.1135-0.2277l0.8111-0.8111c0.0391-0.0367 0.0908-0.0572 0.1444-0.0572 0.0537 0 0.1053 0.0205 0.1445 0.0572l0.9444 0.9444c0.0281 0.0267 0.0478 0.0609 0.0568 0.0985s0.0069 0.077-6e-3 0.1135c-0.0129 0.0364-0.0362 0.0683-0.0669 0.0918-0.0307 0.0236-0.0675 0.0377-0.1061 0.0407l-1.5556 0.2-0.0777 0.0111zm0-0.4111 1.1777-0.1445-0.5222-0.5222-0.6667 0.6667h0.0112z" fill="#FF6C37"/>
<path d="m23.53 9.3503c-0.0209-0.03502-0.054-0.06116-0.0929-0.07344-0.0389-0.01229-0.081-0.00988-0.1182 0.00678-0.0184 0.00938-0.0346 0.02231-0.0479 0.03804s-0.0234 0.03394-0.0296 0.05358-0.0084 0.04032-0.0066 0.06083c0.0019 0.02051 0.0078 0.04045 0.0174 0.05866 0.0382 0.08026 0.0532 0.16958 0.0434 0.2579-0.0098 0.08833-0.0441 0.17217-0.0989 0.2421-0.0145 0.01355-0.0261 0.02985-0.0339 0.04805-0.0079 0.0181-0.012 0.0377-0.012 0.0575s0.0041 0.0394 0.012 0.0575c0.0078 0.0182 0.0194 0.0345 0.0339 0.0481 0.0285 0.0111 0.0603 0.0111 0.0888 0 0.0259 0.0066 0.053 6e-3 0.0785-0.0019 0.0255-0.0078 0.0484-0.0226 0.066-0.0426 0.0914-0.112 0.1494-0.24758 0.1671-0.39111 0.0177-0.14352-0.0056-0.28912-0.0671-0.41999z" fill="#FF6C37"/>
</svg>